<svg width="563" height="117" viewBox="0 0 563 117" fill="none" xmlns="http://www.w3.org/2000/svg">
<path d="M101.748 35C100.884 35 100.091 34.79 99.3677 34.37C98.6444 33.95 98.0727 33.3783 97.6527 32.655C97.2327 31.9317 97.0227 31.1383 97.0227 30.275V14.525C97.0227 13.6617 97.2327 12.8683 97.6527 12.145C98.0727 11.4217 98.6444 10.85 99.3677 10.43C100.091 10.01 100.884 9.8 101.748 9.8H117.498C118.361 9.8 119.143 10.01 119.843 10.43C120.566 10.85 121.138 11.4217 121.558 12.145C122.001 12.8683 122.223 13.6617 122.223 14.525V30.275C122.223 31.1383 122.001 31.9317 121.558 32.655C121.138 33.3783 120.566 33.95 119.843 34.37C119.143 34.79 118.361 35 117.498 35H101.748ZM101.853 30.765H117.358C117.521 30.765 117.661 30.7067 117.778 30.59C117.918 30.4733 117.988 30.3217 117.988 30.135V14.665C117.988 14.4783 117.918 14.3267 117.778 14.21C117.661 14.0933 117.521 14.035 117.358 14.035H101.853C101.689 14.035 101.538 14.0933 101.398 14.21C101.281 14.3267 101.223 14.4783 101.223 14.665V30.135C101.223 30.3217 101.281 30.4733 101.398 30.59C101.538 30.7067 101.689 30.765 101.853 30.765ZM130.662 35C129.799 35 129.005 34.79 128.282 34.37C127.582 33.9267 127.022 33.355 126.602 32.655C126.182 31.955 125.972 31.1733 125.972 30.31V14.7H130.137V30.17C130.137 30.3567 130.195 30.52 130.312 30.66C130.452 30.7767 130.615 30.835 130.802 30.835H141.757C141.944 30.835 142.095 30.7767 142.212 30.66C142.352 30.52 142.422 30.3567 142.422 30.17V14.7H146.587V30.31C146.587 31.1733 146.377 31.955 145.957 32.655C145.537 33.355 144.977 33.9267 144.277 34.37C143.577 34.79 142.784 35 141.897 35H130.662ZM150.273 35V19.39C150.273 18.5267 150.483 17.745 150.903 17.045C151.346 16.345 151.918 15.785 152.618 15.365C153.341 14.9217 154.123 14.7 154.963 14.7H166.268V18.865H155.103C154.916 18.865 154.753 18.935 154.613 19.075C154.496 19.1917 154.438 19.3433 154.438 19.53V35H150.273ZM179.022 35V9.765H183.222V30.765H204.222V35H179.022ZM210.813 35C209.949 35 209.156 34.79 208.433 34.37C207.733 33.9267 207.173 33.355 206.753 32.655C206.333 31.955 206.123 31.1733 206.123 30.31V22.75H222.573V19.53C222.573 19.3433 222.503 19.1917 222.363 19.075C222.246 18.935 222.094 18.865 221.908 18.865H206.123V14.7H222.048C222.934 14.7 223.728 14.9217 224.428 15.365C225.128 15.785 225.688 16.345 226.108 17.045C226.528 17.745 226.738 18.5267 226.738 19.39V35H210.813ZM210.953 30.835H222.573V26.565H210.288V30.17C210.288 30.3567 210.346 30.52 210.463 30.66C210.603 30.7767 210.766 30.835 210.953 30.835ZM235.149 35C234.286 35 233.493 34.79 232.769 34.37C232.069 33.9267 231.509 33.355 231.089 32.655C230.669 31.955 230.459 31.1733 230.459 30.31V8.365H234.624V14.7H242.744V18.865H234.624V30.17C234.624 30.3567 234.683 30.52 234.799 30.66C234.939 30.7767 235.103 30.835 235.289 30.835H242.744V35H235.149ZM250.187 35C249.323 35 248.542 34.79 247.842 34.37C247.142 33.9267 246.57 33.355 246.127 32.655C245.707 31.955 245.497 31.1733 245.497 30.31V19.39C245.497 18.5267 245.707 17.745 246.127 17.045C246.57 16.345 247.142 15.785 247.842 15.365C248.542 14.9217 249.323 14.7 250.187 14.7H261.422C262.308 14.7 263.102 14.9217 263.802 15.365C264.502 15.785 265.062 16.345 265.482 17.045C265.902 17.745 266.112 18.5267 266.112 19.39V26.95H249.662V30.17C249.662 30.3567 249.72 30.52 249.837 30.66C249.977 30.7767 250.14 30.835 250.327 30.835H266.112V35H250.187ZM249.662 23.135H261.947V19.53C261.947 19.3433 261.877 19.1917 261.737 19.075C261.62 18.935 261.468 18.865 261.282 18.865H250.327C250.14 18.865 249.977 18.935 249.837 19.075C249.72 19.1917 249.662 19.3433 249.662 19.53V23.135ZM274.144 35C273.281 35 272.499 34.79 271.799 34.37C271.099 33.9267 270.528 33.355 270.084 32.655C269.664 31.955 269.454 31.1733 269.454 30.31V29.645H273.619V30.17C273.619 30.3567 273.678 30.52 273.794 30.66C273.934 30.7767 274.098 30.835 274.284 30.835H285.239C285.426 30.835 285.578 30.7767 285.694 30.66C285.834 30.52 285.904 30.3567 285.904 30.17V27.58C285.904 27.4167 285.834 27.2767 285.694 27.16C285.578 27.02 285.426 26.95 285.239 26.95H274.144C273.281 26.95 272.499 26.74 271.799 26.32C271.099 25.8767 270.528 25.305 270.084 24.605C269.664 23.905 269.454 23.1233 269.454 22.26V19.39C269.454 18.5267 269.664 17.745 270.084 17.045C270.528 16.345 271.099 15.785 271.799 15.365C272.499 14.9217 273.281 14.7 274.144 14.7H285.379C286.266 14.7 287.059 14.9217 287.759 15.365C288.459 15.785 289.019 16.345 289.439 17.045C289.883 17.745 290.104 18.5267 290.104 19.39V20.055H285.904V19.53C285.904 19.3433 285.834 19.1917 285.694 19.075C285.578 18.935 285.426 18.865 285.239 18.865H274.284C274.098 18.865 273.934 18.935 273.794 19.075C273.678 19.1917 273.619 19.3433 273.619 19.53V22.12C273.619 22.2833 273.678 22.435 273.794 22.575C273.934 22.6917 274.098 22.75 274.284 22.75H285.379C286.266 22.75 287.059 22.9717 287.759 23.415C288.459 23.835 289.019 24.395 289.439 25.095C289.883 25.795 290.104 26.5767 290.104 27.44V30.31C290.104 31.1733 289.883 31.955 289.439 32.655C289.019 33.355 288.459 33.9267 287.759 34.37C287.059 34.79 286.266 35 285.379 35H274.144ZM298.313 35C297.45 35 296.657 34.79 295.933 34.37C295.233 33.9267 294.673 33.355 294.253 32.655C293.833 31.955 293.623 31.1733 293.623 30.31V8.365H297.788V14.7H305.908V18.865H297.788V30.17C297.788 30.3567 297.847 30.52 297.963 30.66C298.103 30.7767 298.267 30.835 298.453 30.835H305.908V35H298.313Z" fill="white"/>
<path d="M319.331 35V14.525C319.331 13.6617 319.541 12.8683 319.961 12.145C320.381 11.4217 320.952 10.85 321.676 10.43C322.399 10.01 323.192 9.8 324.056 9.8H339.806C340.669 9.8 341.451 10.01 342.151 10.43C342.874 10.85 343.446 11.4217 343.866 12.145C344.309 12.8683 344.531 13.6617 344.531 14.525V35H340.296V26.355H323.531V35H319.331ZM323.531 22.155H340.296V14.665C340.296 14.4783 340.226 14.3267 340.086 14.21C339.969 14.0933 339.829 14.035 339.666 14.035H324.161C323.997 14.035 323.846 14.0933 323.706 14.21C323.589 14.3267 323.531 14.4783 323.531 14.665V22.155ZM353.033 35C352.17 35 351.388 34.79 350.688 34.37C349.988 33.9267 349.417 33.355 348.973 32.655C348.553 31.955 348.343 31.1733 348.343 30.31V19.39C348.343 18.5267 348.553 17.745 348.973 17.045C349.417 16.345 349.988 15.785 350.688 15.365C351.388 14.9217 352.17 14.7 353.033 14.7H368.923V18.865H353.173C352.987 18.865 352.823 18.935 352.683 19.075C352.567 19.1917 352.508 19.3433 352.508 19.53V30.17C352.508 30.3567 352.567 30.52 352.683 30.66C352.823 30.7767 352.987 30.835 353.173 30.835H368.958V35H353.033ZM376.517 35C375.653 35 374.86 34.79 374.137 34.37C373.437 33.9267 372.877 33.355 372.457 32.655C372.037 31.955 371.827 31.1733 371.827 30.31V8.365H375.992V14.7H384.112V18.865H375.992V30.17C375.992 30.3567 376.05 30.52 376.167 30.66C376.307 30.7767 376.47 30.835 376.657 30.835H384.112V35H376.517ZM386.967 35V14.7H391.132V35H386.967ZM386.967 12.25V8.05H391.132V12.25H386.967ZM404.806 35L393.641 14.7H398.471L406.836 30.065L415.201 14.7H420.031L408.796 35H404.806ZM422.548 35V14.7H426.713V35H422.548ZM422.548 12.25V8.05H426.713V12.25H422.548ZM435.306 35C434.442 35 433.649 34.79 432.926 34.37C432.226 33.9267 431.666 33.355 431.246 32.655C430.826 31.955 430.616 31.1733 430.616 30.31V8.365H434.781V14.7H442.901V18.865H434.781V30.17C434.781 30.3567 434.839 30.52 434.956 30.66C435.096 30.7767 435.259 30.835 435.446 30.835H442.901V35H435.306ZM448.974 42.63V38.43H461.329C461.492 38.43 461.632 38.36 461.749 38.22C461.889 38.1033 461.959 37.9633 461.959 37.8V35H450.199C449.359 35 448.577 34.79 447.854 34.37C447.154 33.9267 446.582 33.355 446.139 32.655C445.719 31.955 445.509 31.1733 445.509 30.31V14.77H449.674V30.17C449.674 30.3567 449.732 30.52 449.849 30.66C449.989 30.7767 450.152 30.835 450.339 30.835H461.329C461.492 30.835 461.632 30.7767 461.749 30.66C461.889 30.52 461.959 30.3567 461.959 30.17V14.77H466.124V37.94C466.124 38.8267 465.914 39.62 465.494 40.32C465.097 41.02 464.537 41.58 463.814 42C463.114 42.42 462.332 42.63 461.469 42.63H448.974Z" fill="url(#paint0_linear_1_121)"/>
<path d="M25.4564 77.3212L19.9844 77.2964L18.9638 80.0817L17.2358 80.0739L21.8284 67.6206L23.7184 67.6292L28.1797 80.1236L26.4517 80.1157L25.4564 77.3212ZM24.9944 75.9871L22.7552 69.6408L20.4585 75.9665L24.9944 75.9871ZM29.5671 75.1618C29.5717 74.1538 29.7797 73.2728 30.1911 72.5186C30.6026 71.7525 31.1633 71.161 31.8732 70.7442C32.5951 70.3275 33.4001 70.1212 34.288 70.1252C35.056 70.1287 35.7692 70.3119 36.4276 70.6749C37.086 71.0259 37.5879 71.4902 37.9333 72.0678L37.957 66.8478L39.6129 66.8553L39.5525 80.1752L37.8965 80.1677L37.9049 78.3137C37.5782 78.9002 37.096 79.384 36.4583 79.7652C35.8206 80.1343 35.0758 80.3169 34.2238 80.313C33.3478 80.309 32.5508 80.0894 31.8328 79.6542C31.1267 79.2189 30.5715 78.6104 30.167 77.8286C29.7626 77.0467 29.5626 76.1578 29.5671 75.1618ZM37.919 75.2177C37.9223 74.4737 37.7753 73.8251 37.4778 73.2717C37.1803 72.7184 36.7742 72.2965 36.2595 72.0062C35.7569 71.7039 35.1996 71.5514 34.5876 71.5486C33.9756 71.5458 33.4169 71.6873 32.9116 71.973C32.4063 72.2587 32.0024 72.6769 31.6999 73.2275C31.3974 73.7781 31.2445 74.4254 31.2411 75.1694C31.2377 75.9254 31.3847 76.5861 31.6821 77.1514C31.9796 77.7048 32.3797 78.1326 32.8823 78.4349C33.385 78.7252 33.9423 78.8717 34.5543 78.8745C35.1663 78.8773 35.725 78.7358 36.2303 78.4501C36.7476 78.1524 37.1576 77.7283 37.4601 77.1777C37.7626 76.615 37.9156 75.9617 37.919 75.2177ZM43.2185 68.7257C42.9066 68.7243 42.643 68.6151 42.428 68.3981C42.213 68.1812 42.1062 67.9167 42.1076 67.6047C42.109 67.2927 42.2182 67.0292 42.4352 66.8141C42.6522 66.5991 42.9167 66.4923 43.2287 66.4937C43.5287 66.4951 43.7802 66.6043 43.9832 66.8212C44.1982 67.0382 44.305 67.3026 44.3036 67.6146C44.3022 67.9266 44.193 68.1901 43.976 68.4052C43.771 68.6202 43.5185 68.7271 43.2185 68.7257ZM44.0033 70.3313L43.9585 80.1952L42.3205 80.1878L42.3653 70.3239L44.0033 70.3313ZM48.4247 72.1694C48.7512 71.6069 49.2333 71.1411 49.871 70.7719C50.5208 70.3909 51.2716 70.2023 52.1236 70.2062C52.9996 70.2101 53.7906 70.4237 54.4967 70.8469C55.2148 71.2702 55.7761 71.8668 56.1806 72.6366C56.5852 73.3944 56.7852 74.2774 56.7806 75.2854C56.7761 76.2813 56.5681 77.1684 56.1565 77.9465C55.745 78.7247 55.1782 79.3281 54.4563 79.7568C53.7463 80.1856 52.9534 80.398 52.0774 80.3941C51.2374 80.3902 50.4942 80.2009 49.8479 79.8259C49.2137 79.439 48.7298 78.9628 48.3964 78.3973L48.3669 84.8953L46.7289 84.8878L46.7949 70.344L48.4329 70.3514L48.4247 72.1694ZM55.1066 75.2778C55.11 74.5338 54.9629 73.8851 54.6654 73.3317C54.368 72.7784 53.9619 72.3565 53.4472 72.0662C52.9445 71.7759 52.3872 71.6294 51.7752 71.6266C51.1752 71.6239 50.6165 71.7713 50.0991 72.069C49.5938 72.3547 49.1839 72.7788 48.8693 73.3414C48.5668 73.8921 48.4139 74.5334 48.4106 75.2654C48.4072 76.0094 48.5543 76.664 48.8517 77.2294C49.1612 77.7828 49.5672 78.2106 50.0699 78.5129C50.5846 78.8033 51.1419 78.9498 51.7419 78.9525C52.3539 78.9553 52.9125 78.8138 53.4178 78.5281C53.9352 78.2305 54.3451 77.8063 54.6476 77.2557C54.9502 76.6931 55.1032 76.0337 55.1066 75.2778ZM59.8121 68.801C59.5001 68.7996 59.2366 68.6904 59.0216 68.4735C58.8066 68.2565 58.6998 67.992 58.7012 67.68C58.7026 67.368 58.8118 67.1045 59.0288 66.8895C59.2458 66.6745 59.5103 66.5677 59.8223 66.5691C60.1223 66.5704 60.3738 66.6796 60.5768 66.8965C60.7918 67.1135 60.8986 67.378 60.8972 67.69C60.8958 68.002 60.7866 68.2655 60.5696 68.4805C60.3646 68.6956 60.1121 68.8024 59.8121 68.801ZM60.5968 70.4066L60.5521 80.2705L58.9141 80.2631L58.9589 70.3992L60.5968 70.4066ZM66.835 80.461C66.079 80.4576 65.4015 80.3285 64.8027 80.0738C64.2039 79.8071 63.7315 79.4449 63.3856 78.9874C63.0397 78.5178 62.8502 77.9829 62.8169 77.3828L64.5089 77.3905C64.5546 77.8827 64.7808 78.2857 65.1874 78.5995C65.606 78.9134 66.1513 79.0719 66.8233 79.075C67.4472 79.0778 67.9399 78.942 68.3011 78.6677C68.6624 78.3933 68.8439 78.0461 68.8459 77.6261C68.8478 77.1941 68.6573 76.8753 68.2742 76.6695C67.8912 76.4518 67.2981 76.2391 66.4951 76.0315C65.7639 75.8361 65.1648 75.6414 64.6977 75.4473C64.2426 75.2412 63.848 74.9454 63.5137 74.5599C63.1915 74.1624 63.0319 73.6457 63.0347 73.0097C63.037 72.5057 63.1891 72.0444 63.491 71.6258C63.7929 71.2071 64.2204 70.8791 64.7735 70.6416C65.3266 70.3921 65.9572 70.269 66.6652 70.2722C67.7572 70.2771 68.6379 70.5571 69.3074 71.1122C69.9769 71.6672 70.3335 72.4248 70.3771 73.385L68.7391 73.3776C68.7055 72.8615 68.4974 72.4465 68.1148 72.1328C67.7442 71.8191 67.2409 71.6608 66.6049 71.6579C66.0169 71.6552 65.5484 71.7791 65.1992 72.0295C64.8501 72.2799 64.6746 72.6092 64.6727 73.0172C64.6713 73.3411 64.772 73.6116 64.975 73.8285C65.1901 74.0335 65.4534 74.2027 65.7648 74.3361C66.0882 74.4576 66.5316 74.5976 67.0949 74.7562C67.802 74.9514 68.3771 75.146 68.8202 75.34C69.2634 75.522 69.6401 75.7997 69.9505 76.1731C70.2728 76.5466 70.4386 77.0334 70.4478 77.6334C70.4454 78.1734 70.2932 78.6587 69.9912 79.0894C69.6893 79.52 69.2617 79.8601 68.7086 80.1095C68.1675 80.3471 67.543 80.4643 66.835 80.461ZM72.1584 75.3732C72.163 74.3532 72.3711 73.4661 72.7825 72.712C73.194 71.9458 73.7607 71.3544 74.4826 70.9377C75.2165 70.521 76.0514 70.3148 76.9874 70.319C78.1994 70.3245 79.194 70.623 79.9714 71.2146C80.7607 71.8062 81.279 72.6245 81.5262 73.6697L79.7623 73.6617C79.597 73.0609 79.2691 72.5854 78.7787 72.2352C78.3003 71.885 77.7011 71.7083 76.9811 71.705C76.0451 71.7008 75.2877 72.0213 74.7087 72.6667C74.1298 73.3001 73.8377 74.2048 73.8324 75.3808C73.827 76.5687 74.1108 77.488 74.6839 78.1386C75.2569 78.7893 76.0115 79.1167 76.9474 79.1209C77.6674 79.1242 78.2682 78.9589 78.7497 78.6251C79.2312 78.2913 79.5634 77.8128 79.7462 77.1896L81.5102 77.1976C81.2416 78.2044 80.71 79.012 79.9152 79.6204C79.1205 80.2168 78.1291 80.5123 76.9412 80.5069C76.0052 80.5027 75.1721 80.2889 74.442 79.8656C73.724 79.4423 73.1627 78.8457 72.7581 78.0759C72.3536 77.3061 72.1537 76.4051 72.1584 75.3732ZM84.5794 68.9135C84.2675 68.9121 84.0039 68.8029 83.7889 68.5859C83.5739 68.3689 83.4671 68.1044 83.4685 67.7924C83.4699 67.4804 83.5791 67.2169 83.7961 67.0019C84.0131 66.7869 84.2776 66.6801 84.5896 66.6815C84.8896 66.6829 85.1411 66.792 85.3441 67.0089C85.5591 67.2259 85.6659 67.4904 85.6645 67.8024C85.6631 68.1144 85.5539 68.3779 85.3369 68.5929C85.1319 68.808 84.8794 68.9148 84.5794 68.9135ZM85.3642 70.519L85.3194 80.3829L83.6814 80.3755L83.7262 70.5116L85.3642 70.519ZM92.9626 70.3735C94.1626 70.379 95.1329 70.7494 95.8736 71.4848C96.6143 72.2081 96.9816 73.2538 96.9754 74.6218L96.949 80.4357L95.329 80.4284L95.3543 74.8484C95.3588 73.8644 95.1162 73.1133 94.6265 72.5951C94.1369 72.0649 93.4661 71.7978 92.6141 71.794C91.7502 71.79 91.0589 72.0569 90.5405 72.5946C90.034 73.1323 89.7785 73.9171 89.7738 74.9491L89.749 80.4031L88.1111 80.3956L88.1558 70.5317L89.7938 70.5392L89.7874 71.9431C90.1137 71.4406 90.5535 71.0526 91.1067 70.7791C91.672 70.5057 92.2906 70.3705 92.9626 70.3735ZM103.738 70.4404C104.59 70.4443 105.333 70.6337 105.968 71.0086C106.614 71.3835 107.092 71.8537 107.401 72.4191L107.409 70.6191L109.065 70.6266L109.02 80.7065C109.015 81.6065 108.82 82.4036 108.433 83.0979C108.045 83.8041 107.491 84.3536 106.769 84.7464C106.059 85.1391 105.23 85.3334 104.283 85.3291C102.987 85.3232 101.908 85.0123 101.047 84.3964C100.185 83.7805 99.6793 82.9442 99.5281 81.8875L101.148 81.8948C101.325 82.4956 101.695 82.9773 102.258 83.3399C102.82 83.7144 103.497 83.9035 104.289 83.9071C105.189 83.9112 105.922 83.6325 106.489 83.0711C107.067 82.5097 107.359 81.719 107.364 80.699L107.373 78.629C107.046 79.2036 106.564 79.6814 105.926 80.0625C105.289 80.4436 104.544 80.6322 103.692 80.6283C102.816 80.6244 102.019 80.4047 101.301 79.9695C100.595 79.5343 100.04 78.9257 99.6351 78.1439C99.2306 77.3621 99.0306 76.4731 99.0352 75.4772C99.0397 74.4692 99.2477 73.5881 99.6592 72.834C100.071 72.0678 100.631 71.4764 101.341 71.0596C102.063 70.6428 102.862 70.4365 103.738 70.4404ZM107.387 75.5331C107.39 74.7891 107.243 74.1404 106.946 73.587C106.648 73.0337 106.242 72.6118 105.728 72.3215C105.225 72.0192 104.668 71.8667 104.056 71.8639C103.444 71.8611 102.885 72.0026 102.38 72.2883C101.874 72.574 101.47 72.9922 101.168 73.5428C100.865 74.0934 100.713 74.7408 100.709 75.4847C100.706 76.2407 100.853 76.9014 101.15 77.4668C101.448 78.0201 101.848 78.4479 102.35 78.7502C102.853 79.0405 103.41 79.187 104.022 79.1898C104.634 79.1926 105.193 79.0511 105.698 78.7654C106.216 78.4678 106.626 78.0436 106.928 77.493C107.231 76.9304 107.384 76.2771 107.387 75.5331ZM115.998 75.5541C116.002 74.5462 116.21 73.6651 116.622 72.911C117.033 72.1448 117.594 71.5534 118.304 71.1366C119.026 70.7198 119.825 70.5135 120.701 70.5174C121.565 70.5214 122.314 70.7108 122.948 71.0856C123.583 71.4605 124.054 71.9307 124.364 72.4961L124.372 70.6961L126.028 70.7036L125.983 80.5675L124.327 80.56L124.336 78.724C124.009 79.2985 123.521 79.7763 122.871 80.1574C122.233 80.5265 121.489 80.7091 120.637 80.7053C119.761 80.7013 118.97 80.4817 118.264 80.0465C117.557 79.6113 117.002 79.0027 116.598 78.2209C116.193 77.4391 115.993 76.5501 115.998 75.5541ZM124.35 75.6101C124.353 74.8661 124.206 74.2174 123.909 73.664C123.611 73.1107 123.205 72.6888 122.69 72.3985C122.188 72.0962 121.63 71.9437 121.018 71.9409C120.406 71.9381 119.848 72.0796 119.342 72.3653C118.837 72.651 118.433 73.0692 118.131 73.6198C117.828 74.1704 117.675 74.8178 117.672 75.5617C117.668 76.3177 117.815 76.9784 118.113 77.5438C118.41 78.0971 118.81 78.5249 119.313 78.8272C119.816 79.1175 120.373 79.264 120.985 79.2668C121.597 79.2696 122.156 79.1281 122.661 78.8424C123.178 78.5448 123.588 78.1206 123.891 77.57C124.193 77.0074 124.346 76.354 124.35 75.6101ZM130.788 72.0752L130.761 77.8892C130.759 78.3692 130.86 78.7116 131.063 78.9166C131.266 79.1095 131.62 79.2071 132.124 79.2094L133.33 79.2149L133.323 80.6008L131.847 80.5941C130.935 80.59 130.252 80.3769 129.798 79.9548C129.344 79.5328 129.119 78.8417 129.124 77.8817L129.15 72.0678L127.872 72.062L127.878 70.712L129.156 70.7178L129.167 68.2338L130.805 68.2413L130.794 70.7253L133.368 70.7369L133.362 72.0869L130.788 72.0752ZM141.005 69.1696C140.693 69.1682 140.429 69.059 140.214 68.842C139.999 68.625 139.892 68.3605 139.894 68.0485C139.895 67.7365 140.004 67.473 140.221 67.258C140.438 67.043 140.703 66.9362 141.015 66.9376C141.315 66.939 141.566 67.0481 141.769 67.265C141.984 67.482 142.091 67.7465 142.09 68.0585C142.088 68.3705 141.979 68.634 141.762 68.849C141.557 69.0641 141.305 69.171 141.005 69.1696ZM141.789 70.7752L141.745 80.6391L140.107 80.6316L140.151 70.7677L141.789 70.7752ZM149.388 70.6297C150.588 70.6351 151.558 71.0055 152.299 71.7409C153.04 72.4643 153.407 73.5099 153.401 74.8779L153.374 80.6919L151.754 80.6845L151.78 75.1046C151.784 74.1206 151.541 73.3695 151.052 72.8512C150.562 72.321 149.891 72.054 149.039 72.0501C148.175 72.0462 147.484 72.313 146.966 72.8507C146.459 73.3884 146.204 74.1732 146.199 75.2052L146.174 80.6592L144.536 80.6517L144.581 70.7878L146.219 70.7953L146.213 72.1993C146.539 71.6967 146.979 71.3087 147.532 71.0352C148.097 70.7618 148.716 70.6266 149.388 70.6297ZM162.885 72.2209L162.859 78.0349C162.857 78.5149 162.957 78.8573 163.16 79.0623C163.363 79.2552 163.717 79.3528 164.221 79.3551L165.427 79.3605L165.421 80.7465L163.945 80.7398C163.033 80.7357 162.35 80.5226 161.895 80.1005C161.441 79.6785 161.216 78.9874 161.221 78.0274L161.247 72.2135L159.969 72.2077L159.975 70.8577L161.253 70.8635L161.265 68.3795L162.903 68.387L162.891 70.871L165.465 70.8826L165.459 72.2326L162.885 72.2209ZM176.429 75.4864C176.428 75.7984 176.408 76.1284 176.371 76.4762L168.487 76.4404C168.542 77.4127 168.869 78.1762 169.466 78.7309C170.076 79.2737 170.813 79.547 171.677 79.5509C172.385 79.5541 172.973 79.3948 173.443 79.0729C173.924 78.7391 174.262 78.2966 174.457 77.7455L176.221 77.7535C175.953 78.7003 175.421 79.4719 174.626 80.0683C173.832 80.6527 172.846 80.9422 171.67 80.9369C170.734 80.9327 169.895 80.7188 169.153 80.2955C168.423 79.8722 167.85 79.2755 167.433 78.5056C167.017 77.7237 166.811 76.8228 166.816 75.8028C166.82 74.7828 167.028 73.8898 167.44 73.1236C167.851 72.3575 168.424 71.7721 169.158 71.3674C169.904 70.9508 170.757 70.7447 171.717 70.749C172.653 70.7533 173.48 70.961 174.198 71.3723C174.916 71.7835 175.465 72.35 175.846 73.0718C176.239 73.7816 176.433 74.5865 176.429 75.4864ZM174.739 75.1368C174.742 74.5128 174.606 73.9782 174.332 73.5329C174.058 73.0757 173.682 72.7319 173.203 72.5018C172.736 72.2597 172.214 72.1373 171.638 72.1347C170.81 72.1309 170.101 72.3917 169.511 72.917C168.932 73.4424 168.599 74.1729 168.511 75.1085L174.739 75.1368ZM180.266 67.4938L180.205 80.8136L178.567 80.8062L178.628 67.4863L180.266 67.4938ZM184.695 67.5139L184.635 80.8338L182.997 80.8263L183.057 67.5065L184.695 67.5139ZM196.219 71.0222L196.174 80.8861L194.536 80.8787L194.543 79.4207C194.229 79.9233 193.789 80.3173 193.224 80.6027C192.67 80.8762 192.058 81.0114 191.386 81.0084C190.618 81.0049 189.928 80.8458 189.318 80.531C188.707 80.2042 188.224 79.722 187.866 79.0844C187.521 78.4468 187.351 77.672 187.355 76.7601L187.381 70.9821L189.001 70.9895L188.976 76.5514C188.972 77.5234 189.214 78.2745 189.704 78.8047C190.193 79.323 190.864 79.584 191.716 79.5879C192.592 79.5919 193.283 79.325 193.79 78.7873C194.296 78.2496 194.552 77.4647 194.557 76.4327L194.581 71.0148L196.219 71.0222ZM202.431 81.0765C201.675 81.0731 200.998 80.944 200.399 80.6893C199.8 80.4226 199.328 80.0604 198.982 79.6029C198.636 79.1333 198.446 78.5984 198.413 77.9983L200.105 78.0059C200.151 78.4982 200.377 78.9012 200.784 79.215C201.202 79.5289 201.748 79.6874 202.42 79.6905C203.044 79.6933 203.536 79.5575 203.897 79.2832C204.259 79.0088 204.44 78.6616 204.442 78.2416C204.444 77.8096 204.254 77.4908 203.87 77.285C203.487 77.0673 202.894 76.8546 202.091 76.6469C201.36 76.4516 200.761 76.2569 200.294 76.0628C199.839 75.8567 199.444 75.5609 199.11 75.1754C198.788 74.7779 198.628 74.2612 198.631 73.6252C198.633 73.1212 198.785 72.6599 199.087 72.2413C199.389 71.8226 199.817 71.4946 200.37 71.2571C200.923 71.0076 201.553 70.8844 202.261 70.8877C203.353 70.8926 204.234 71.1726 204.904 71.7277C205.573 72.2827 205.93 73.0403 205.973 74.0005L204.335 73.9931C204.302 73.4769 204.094 73.062 203.711 72.7483C203.34 72.4346 202.837 72.2763 202.201 72.2734C201.613 72.2707 201.145 72.3946 200.795 72.645C200.446 72.8954 200.271 73.2246 200.269 73.6326C200.268 73.9566 200.368 74.2271 200.571 74.444C200.786 74.649 201.05 74.8182 201.361 74.9516C201.684 75.0731 202.128 75.2131 202.691 75.3717C203.398 75.5669 203.973 75.7615 204.416 75.9555C204.86 76.1375 205.236 76.4152 205.547 76.7886C205.869 77.1621 206.035 77.6489 206.044 78.2489C206.042 78.7889 205.889 79.2742 205.587 79.7048C205.286 80.1355 204.858 80.4755 204.305 80.725C203.764 80.9626 203.139 81.0797 202.431 81.0765ZM214.041 69.5011C213.729 69.4997 213.466 69.3905 213.25 69.1735C213.035 68.9565 212.929 68.6921 212.93 68.3801C212.931 68.0681 213.041 67.8046 213.258 67.5895C213.475 67.3745 213.739 67.2677 214.051 67.2691C214.351 67.2705 214.603 67.3796 214.806 67.5966C215.021 67.8135 215.127 68.078 215.126 68.39C215.125 68.702 215.015 68.9655 214.798 69.1805C214.593 69.3956 214.341 69.5025 214.041 69.5011ZM214.826 71.1067L214.781 80.9706L213.143 80.9632L213.188 71.0993L214.826 71.1067ZM222.424 70.9612C223.624 70.9666 224.594 71.337 225.335 72.0724C226.076 72.7958 226.443 73.8415 226.437 75.2094L226.411 81.0234L224.791 81.016L224.816 75.4361C224.82 74.4521 224.578 73.701 224.088 73.1828C223.598 72.6525 222.928 72.3855 222.076 72.3816C221.212 72.3777 220.52 72.6446 220.002 73.1822C219.496 73.7199 219.24 74.5048 219.235 75.5368L219.211 80.9907L217.573 80.9833L217.617 71.1194L219.255 71.1268L219.249 72.5308C219.575 72.0283 220.015 71.6403 220.568 71.3668C221.134 71.0933 221.752 70.9581 222.424 70.9612ZM231.123 72.5307L231.096 78.3446C231.094 78.8246 231.195 79.1671 231.398 79.372C231.601 79.5649 231.954 79.6625 232.458 79.6648L233.664 79.6703L233.658 81.0563L232.182 81.0496C231.27 81.0454 230.587 80.8323 230.133 80.4103C229.679 79.9882 229.454 79.2972 229.458 78.3372L229.485 72.5232L228.207 72.5174L228.213 71.1675L229.491 71.1733L229.502 68.6893L231.14 68.6967L231.129 71.1807L233.703 71.1924L233.697 72.5424L231.123 72.5307ZM244.667 75.7962C244.665 76.1082 244.646 76.4381 244.608 76.7859L236.724 76.7501C236.78 77.7224 237.106 78.4859 237.704 79.0406C238.313 79.5834 239.05 79.8567 239.914 79.8607C240.622 79.8639 241.211 79.7045 241.68 79.3827C242.162 79.0489 242.5 78.6064 242.694 78.0553L244.458 78.0633C244.19 79.0101 243.659 79.7817 242.864 80.3781C242.069 80.9625 241.084 81.252 239.908 81.2466C238.972 81.2424 238.133 81.0286 237.391 80.6052C236.661 80.1819 236.087 79.5853 235.671 78.8154C235.254 78.0335 235.049 77.1325 235.053 76.1126C235.058 75.0926 235.266 74.1995 235.677 73.4334C236.089 72.6672 236.662 72.0818 237.395 71.6771C238.141 71.2605 238.994 71.0544 239.954 71.0587C240.89 71.063 241.717 71.2708 242.435 71.682C243.154 72.0933 243.703 72.6598 244.084 73.3815C244.476 74.0913 244.671 74.8962 244.667 75.7962ZM242.976 75.4465C242.979 74.8225 242.844 74.2879 242.57 73.8427C242.296 73.3854 241.919 73.0417 241.44 72.8115C240.973 72.5694 240.452 72.447 239.876 72.4444C239.048 72.4407 238.339 72.7014 237.748 73.2268C237.17 73.7521 236.837 74.4826 236.748 75.4182L242.976 75.4465ZM250.918 71.1085C251.77 71.1124 252.513 71.3018 253.148 71.6766C253.794 72.0516 254.272 72.5218 254.581 73.0872L254.589 71.2872L256.245 71.2947L256.2 81.3746C256.196 82.2746 256 83.0717 255.613 83.766C255.226 84.4722 254.671 85.0217 253.949 85.4144C253.24 85.8072 252.411 86.0014 251.463 85.9971C250.167 85.9913 249.088 85.6804 248.227 85.0644C247.366 84.4485 246.859 83.6122 246.708 82.5555L248.328 82.5629C248.505 83.1637 248.875 83.6454 249.438 84.0079C250 84.3825 250.677 84.5716 251.469 84.5752C252.369 84.5792 253.102 84.3006 253.669 83.7391C254.247 83.1778 254.539 82.3871 254.544 81.3671L254.553 79.2971C254.226 79.8716 253.744 80.3494 253.107 80.7305C252.469 81.1117 251.724 81.3003 250.872 81.2964C249.996 81.2924 249.199 81.0728 248.481 80.6376C247.775 80.2023 247.22 79.5938 246.815 78.812C246.411 78.0301 246.211 77.1412 246.215 76.1452C246.22 75.1372 246.428 74.2562 246.839 73.502C247.251 72.7359 247.811 72.1444 248.521 71.7276C249.243 71.3109 250.042 71.1045 250.918 71.1085ZM254.567 76.2011C254.57 75.4571 254.423 74.8085 254.126 74.2551C253.828 73.7018 253.422 73.2799 252.908 72.9896C252.405 72.6873 251.848 72.5348 251.236 72.532C250.624 72.5292 250.065 72.6707 249.56 72.9564C249.054 73.2421 248.651 73.6603 248.348 74.2109C248.046 74.7615 247.893 75.4088 247.889 76.1528C247.886 76.9088 248.033 77.5695 248.33 78.1348C248.628 78.6882 249.028 79.116 249.53 79.4183C250.033 79.7086 250.59 79.8551 251.202 79.8579C251.814 79.8607 252.373 79.7192 252.878 79.4335C253.396 79.1358 253.806 78.7117 254.108 78.1611C254.411 77.5984 254.564 76.9451 254.567 76.2011ZM267.993 75.9021C267.991 76.2141 267.972 76.544 267.934 76.8918L260.05 76.856C260.106 77.8283 260.432 78.5918 261.03 79.1465C261.639 79.6893 262.376 79.9626 263.24 79.9665C263.948 79.9698 264.537 79.8104 265.006 79.4886C265.488 79.1547 265.826 78.7123 266.02 78.1611L267.784 78.1691C267.516 79.1159 266.985 79.8875 266.19 80.4839C265.395 81.0683 264.41 81.3579 263.234 81.3525C262.298 81.3483 261.459 81.1345 260.717 80.7111C259.987 80.2878 259.413 79.6912 258.997 78.9213C258.58 78.1394 258.375 77.2384 258.379 76.2184C258.384 75.1984 258.592 74.3054 259.003 73.5392C259.415 72.7731 259.987 72.1877 260.721 71.783C261.467 71.3664 262.32 71.1603 263.28 71.1646C264.216 71.1689 265.043 71.3766 265.761 71.7879C266.479 72.1992 267.029 72.7657 267.41 73.4874C267.802 74.1972 267.997 75.0021 267.993 75.9021ZM266.302 75.5524C266.305 74.9284 266.17 74.3938 265.896 73.9485C265.622 73.4913 265.245 73.1476 264.766 72.9174C264.299 72.6753 263.778 72.5529 263.202 72.5503C262.374 72.5465 261.665 72.8073 261.074 73.3326C260.496 73.858 260.163 74.5885 260.074 75.5241L266.302 75.5524ZM271.806 72.9673C272.097 72.4047 272.507 71.9685 273.036 71.6589C273.578 71.3494 274.232 71.1963 275 71.1998L274.993 72.8918L274.561 72.8899C272.725 72.8815 271.802 73.8733 271.793 75.8653L271.769 81.2293L270.131 81.2218L270.175 71.3579L271.813 71.3654L271.806 72.9673ZM277.367 81.3627C277.055 81.3613 276.791 81.2521 276.576 81.0351C276.361 80.8181 276.255 80.5536 276.256 80.2416C276.257 79.9296 276.367 79.6661 276.584 79.4511C276.801 79.2361 277.065 79.1293 277.377 79.1307C277.677 79.1321 277.929 79.2412 278.132 79.4581C278.347 79.6751 278.453 79.9396 278.452 80.2516C278.451 80.5636 278.341 80.8271 278.124 81.0421C277.919 81.2572 277.667 81.364 277.367 81.3627ZM293.852 72.4554C293.847 73.4994 293.483 74.3678 292.76 75.0605C292.049 75.7413 290.961 76.0783 289.497 76.0717L287.085 76.0607L287.061 81.2987L285.423 81.2912L285.48 68.7454L289.53 68.7638C290.946 68.7702 292.019 69.1171 292.748 69.8044C293.489 70.4917 293.857 71.3754 293.852 72.4554ZM289.503 74.7217C290.415 74.7258 291.088 74.5309 291.522 74.1369C291.956 73.7428 292.174 73.1798 292.178 72.4478C292.185 70.8998 291.3 70.1218 289.524 70.1137L287.112 70.1028L287.091 74.7107L289.503 74.7217ZM304.871 76.0695C304.87 76.3815 304.85 76.7114 304.813 77.0592L296.929 77.0234C296.984 77.9957 297.311 78.7592 297.908 79.3139C298.518 79.8567 299.255 80.13 300.119 80.1339C300.827 80.1371 301.415 79.9778 301.885 79.6559C302.366 79.3221 302.704 78.8797 302.899 78.3285L304.663 78.3365C304.395 79.2833 303.863 80.0549 303.068 80.6513C302.274 81.2357 301.288 81.5253 300.112 81.5199C299.176 81.5157 298.337 81.3019 297.595 80.8785C296.865 80.4552 296.292 79.8586 295.875 79.0887C295.459 78.3068 295.253 77.4058 295.258 76.3858C295.262 75.3658 295.47 74.4728 295.882 73.7066C296.293 72.9405 296.866 72.3551 297.6 71.9504C298.346 71.5338 299.199 71.3277 300.159 71.332C301.095 71.3363 301.922 71.544 302.64 71.9553C303.358 72.3666 303.907 72.9331 304.288 73.6548C304.681 74.3646 304.875 75.1695 304.871 76.0695ZM303.181 75.7198C303.184 75.0958 303.048 74.5612 302.774 74.1159C302.5 73.6587 302.124 73.315 301.645 73.0848C301.178 72.8427 300.656 72.7203 300.08 72.7177C299.252 72.7139 298.543 72.9747 297.953 73.5C297.374 74.0254 297.041 74.7559 296.953 75.6915L303.181 75.7198ZM308.708 68.0768L308.647 81.3967L307.009 81.3892L307.07 68.0694L308.708 68.0768ZM313.137 68.0969L313.077 81.4168L311.439 81.4093L311.499 68.0895L313.137 68.0969ZM324.892 76.1603C324.891 76.4723 324.872 76.8023 324.834 77.1501L316.95 77.1143C317.006 78.0866 317.332 78.8501 317.93 79.4048C318.539 79.9475 319.276 80.2209 320.14 80.2248C320.848 80.228 321.437 80.0687 321.906 79.7468C322.388 79.413 322.726 78.9705 322.92 78.4194L324.684 78.4274C324.416 79.3742 323.884 80.1458 323.09 80.7422C322.295 81.3266 321.31 81.6161 320.134 81.6108C319.198 81.6066 318.359 81.3927 317.617 80.9694C316.886 80.5461 316.313 79.9494 315.897 79.1795C315.48 78.3976 315.274 77.4967 315.279 76.4767C315.284 75.4567 315.492 74.5637 315.903 73.7975C316.315 73.0314 316.887 72.446 317.621 72.0413C318.367 71.6247 319.22 71.4185 320.18 71.4229C321.116 71.4272 321.943 71.6349 322.661 72.0462C323.379 72.4574 323.929 73.0239 324.309 73.7457C324.702 74.4555 324.897 75.2604 324.892 76.1603ZM323.202 75.8107C323.205 75.1867 323.069 74.6521 322.795 74.2068C322.521 73.7496 322.145 73.4058 321.666 73.1757C321.199 72.9335 320.678 72.8112 320.102 72.8086C319.274 72.8048 318.564 73.0656 317.974 73.5909C317.396 74.1163 317.062 74.8468 316.974 75.7824L323.202 75.8107ZM331.882 71.458C333.082 71.4635 334.052 71.8339 334.793 72.5692C335.534 73.2926 335.901 74.3383 335.895 75.7063L335.868 81.5202L334.248 81.5129L334.274 75.9329C334.278 74.9489 334.036 74.1978 333.546 73.6796C333.056 73.1494 332.386 72.8823 331.534 72.8785C330.67 72.8745 329.978 73.1414 329.46 73.6791C328.953 74.2168 328.698 75.0016 328.693 76.0336L328.668 81.4875L327.03 81.4801L327.075 71.6162L328.713 71.6236L328.707 73.0276C329.033 72.5251 329.473 72.1371 330.026 71.8636C330.591 71.5902 331.21 71.455 331.882 71.458ZM340.581 73.0275L340.554 78.8415C340.552 79.3215 340.653 79.6639 340.856 79.8688C341.059 80.0618 341.412 80.1594 341.916 80.1617L343.122 80.1671L343.116 81.5531L341.64 81.5464C340.728 81.5423 340.045 81.3292 339.591 80.9071C339.137 80.485 338.912 79.794 338.916 78.834L338.943 73.0201L337.665 73.0143L337.671 71.6643L338.949 71.6701L338.96 69.1861L340.598 69.1936L340.587 71.6775L343.161 71.6892L343.155 73.0392L340.581 73.0275ZM354.125 76.293C354.123 76.605 354.104 76.9349 354.066 77.2828L346.182 77.247C346.238 78.2193 346.564 78.9827 347.162 79.5375C347.771 80.0802 348.508 80.3536 349.372 80.3575C350.08 80.3607 350.669 80.2014 351.138 79.8795C351.62 79.5457 351.958 79.1032 352.152 78.5521L353.916 78.5601C353.648 79.5069 353.117 80.2785 352.322 80.8749C351.527 81.4593 350.542 81.7488 349.366 81.7435C348.43 81.7392 347.591 81.5254 346.849 81.1021C346.119 80.6787 345.545 80.0821 345.129 79.3122C344.712 78.5303 344.506 77.6294 344.511 76.6094C344.516 75.5894 344.724 74.6963 345.135 73.9302C345.547 73.1641 346.119 72.5787 346.853 72.174C347.599 71.7574 348.452 71.5512 349.412 71.5556C350.348 71.5598 351.175 71.7676 351.893 72.1789C352.611 72.5901 353.161 73.1566 353.542 73.8784C353.934 74.5882 354.129 75.393 354.125 76.293ZM352.434 75.9434C352.437 75.3194 352.301 74.7847 352.027 74.3395C351.754 73.8822 351.377 73.5385 350.898 73.3084C350.431 73.0662 349.91 72.9439 349.334 72.9413C348.506 72.9375 347.797 73.1983 347.206 73.7236C346.628 74.249 346.294 74.9795 346.206 75.9151L352.434 75.9434ZM359.754 81.7906C358.998 81.7872 358.32 81.6581 357.722 81.4034C357.123 81.1367 356.65 80.7745 356.304 80.317C355.959 79.8474 355.769 79.3125 355.736 78.7124L357.428 78.7201C357.473 79.2123 357.7 79.6153 358.106 79.9291C358.525 80.243 359.07 80.4015 359.742 80.4046C360.366 80.4074 360.859 80.2716 361.22 79.9973C361.581 79.7229 361.763 79.3757 361.765 78.9557C361.767 78.5237 361.576 78.2049 361.193 77.9991C360.81 77.7814 360.217 77.5687 359.414 77.3611C358.683 77.1657 358.084 76.971 357.617 76.7769C357.161 76.5708 356.767 76.275 356.433 75.8895C356.11 75.492 355.951 74.9753 355.954 74.3393C355.956 73.8353 356.108 73.374 356.41 72.9554C356.712 72.5367 357.139 72.2087 357.692 71.9712C358.246 71.7217 358.876 71.5986 359.584 71.6018C360.676 71.6067 361.557 71.8867 362.226 72.4418C362.896 72.9968 363.252 73.7544 363.296 74.7146L361.658 74.7072C361.624 74.1911 361.416 73.7761 361.034 73.4624C360.663 73.1487 360.16 72.9904 359.524 72.9875C358.936 72.9848 358.467 73.1087 358.118 73.3591C357.769 73.6095 357.593 73.9388 357.592 74.3468C357.59 74.6707 357.691 74.9412 357.894 75.1581C358.109 75.3631 358.372 75.5323 358.684 75.6657C359.007 75.7872 359.45 75.9272 360.014 76.0858C360.721 76.281 361.296 76.4756 361.739 76.6696C362.182 76.8516 362.559 77.1293 362.869 77.5027C363.192 77.8762 363.357 78.363 363.367 78.963C363.364 79.503 363.212 79.9883 362.91 80.419C362.608 80.8496 362.181 81.1897 361.627 81.4391C361.086 81.6767 360.462 81.7939 359.754 81.7906ZM365.077 76.6848C365.082 75.6768 365.29 74.7957 365.701 74.0416C366.113 73.2754 366.674 72.684 367.383 72.2672C368.105 71.8504 368.91 71.6441 369.798 71.6481C370.65 71.652 371.393 71.8474 372.028 72.2343C372.674 72.6092 373.146 73.0733 373.443 73.6267L373.451 71.8267L375.107 71.8342L375.041 86.3781L373.385 86.3706L373.415 79.8726C373.1 80.4232 372.618 80.889 371.969 81.2701C371.319 81.6511 370.562 81.8397 369.698 81.8358C368.834 81.8319 368.049 81.6123 367.343 81.1771C366.637 80.7419 366.082 80.1333 365.677 79.3515C365.273 78.5697 365.073 77.6807 365.077 76.6848ZM373.429 76.7407C373.433 75.9967 373.285 75.348 372.988 74.7946C372.691 74.2413 372.284 73.8194 371.77 73.5291C371.267 73.2268 370.71 73.0743 370.098 73.0715C369.486 73.0687 368.927 73.2102 368.422 73.4959C367.917 73.7816 367.513 74.1998 367.21 74.7504C366.908 75.301 366.755 75.9484 366.751 76.6924C366.748 77.4483 366.895 78.109 367.192 78.6744C367.49 79.2277 367.89 79.6556 368.393 79.9578C368.895 80.2481 369.453 80.3947 370.065 80.3974C370.677 80.4002 371.235 80.2587 371.74 79.973C372.258 79.6754 372.668 79.2512 372.97 78.7006C373.273 78.138 373.426 77.4847 373.429 76.7407ZM386.623 71.8865L386.579 81.7504L384.941 81.743L384.947 80.285C384.633 80.7876 384.193 81.1816 383.628 81.467C383.075 81.7405 382.462 81.8757 381.79 81.8727C381.022 81.8692 380.333 81.7101 379.722 81.3953C379.112 81.0685 378.628 80.5863 378.271 79.9487C377.926 79.3111 377.755 78.5363 377.759 77.6243L377.785 71.8464L379.405 71.8537L379.38 77.4157C379.376 78.3877 379.618 79.1388 380.108 79.669C380.598 80.1872 381.268 80.4483 382.12 80.4522C382.996 80.4561 383.688 80.1893 384.194 79.6516C384.701 79.1139 384.956 78.329 384.961 77.297L384.985 71.8791L386.623 71.8865ZM398.368 76.4939C398.367 76.8059 398.347 77.1358 398.31 77.4836L390.426 77.4478C390.481 78.4201 390.808 79.1836 391.405 79.7383C392.015 80.2811 392.752 80.5544 393.616 80.5583C394.324 80.5615 394.913 80.4022 395.382 80.0803C395.863 79.7465 396.202 79.3041 396.396 78.7529L398.16 78.7609C397.892 79.7077 397.36 80.4793 396.565 81.0757C395.771 81.6601 394.785 81.9497 393.609 81.9443C392.674 81.9401 391.834 81.7263 391.092 81.3029C390.362 80.8796 389.789 80.283 389.372 79.5131C388.956 78.7312 388.75 77.8302 388.755 76.8102C388.759 75.7902 388.967 74.8972 389.379 74.131C389.79 73.3649 390.363 72.7795 391.097 72.3748C391.843 71.9582 392.696 71.7521 393.656 71.7564C394.592 71.7607 395.419 71.9684 396.137 72.3797C396.855 72.791 397.405 73.3575 397.785 74.0792C398.178 74.789 398.372 75.5939 398.368 76.4939ZM396.678 76.1442C396.681 75.5202 396.545 74.9856 396.271 74.5403C395.997 74.0831 395.621 73.7394 395.142 73.5092C394.675 73.2671 394.153 73.1447 393.577 73.1421C392.749 73.1383 392.04 73.3991 391.45 73.9244C390.871 74.4498 390.538 75.1803 390.45 76.1159L396.678 76.1442ZM417.213 71.8454C417.981 71.8488 418.664 72.0139 419.262 72.3407C419.861 72.6554 420.333 73.1315 420.678 73.7691C421.023 74.4067 421.193 75.1815 421.189 76.0934L421.163 81.9074L419.543 81.9L419.568 76.3201C419.573 75.3361 419.33 74.585 418.84 74.0668C418.363 73.5366 417.71 73.2696 416.882 73.2659C416.03 73.262 415.351 73.5349 414.844 74.0846C414.338 74.6223 414.082 75.4072 414.078 76.4392L414.053 81.8751L412.433 81.8678L412.458 76.2878C412.463 75.3038 412.22 74.5527 411.731 74.0345C411.253 73.5043 410.6 73.2374 409.772 73.2336C408.92 73.2297 408.241 73.5026 407.734 74.0524C407.228 74.5901 406.972 75.3749 406.968 76.4069L406.943 81.8428L405.305 81.8354L405.35 71.9715L406.988 71.9789L406.981 73.4009C407.308 72.8864 407.741 72.4924 408.283 72.2188C408.836 71.9453 409.443 71.8101 410.103 71.8131C410.931 71.8168 411.662 72.0062 412.296 72.381C412.93 72.7559 413.402 73.3041 413.711 74.0255C413.99 73.3307 414.448 72.7928 415.086 72.4117C415.724 72.0306 416.433 71.8418 417.213 71.8454ZM423.26 76.9489C423.265 75.9409 423.473 75.0598 423.884 74.3057C424.296 73.5395 424.857 72.9481 425.566 72.5313C426.288 72.1145 427.087 71.9082 427.963 71.9121C428.827 71.9161 429.576 72.1055 430.211 72.4804C430.845 72.8552 431.317 73.3254 431.626 73.8908L431.634 72.0908L433.29 72.0983L433.246 81.9622L431.59 81.9547L431.598 80.1187C431.271 80.6933 430.783 81.171 430.134 81.5521C429.496 81.9212 428.751 82.1038 427.899 82.1C427.023 82.096 426.232 81.8764 425.526 81.4412C424.82 81.006 424.265 80.3974 423.86 79.6156C423.456 78.8338 423.256 77.9448 423.26 76.9489ZM431.612 77.0048C431.616 76.2608 431.468 75.6121 431.171 75.0587C430.874 74.5054 430.467 74.0835 429.953 73.7932C429.45 73.4909 428.893 73.3384 428.281 73.3356C427.669 73.3328 427.11 73.4743 426.605 73.76C426.1 74.0457 425.696 74.4639 425.393 75.0145C425.091 75.5651 424.938 76.2125 424.934 76.9565C424.931 77.7124 425.078 78.3731 425.375 78.9385C425.673 79.4918 426.073 79.9197 426.576 80.2219C427.078 80.5122 427.636 80.6588 428.248 80.6615C428.86 80.6643 429.418 80.5228 429.923 80.2371C430.441 79.9395 430.851 79.5153 431.153 78.9647C431.456 78.4021 431.609 77.7488 431.612 77.0048ZM439.505 82.1526C438.749 82.1492 438.072 82.0201 437.473 81.7654C436.874 81.4987 436.402 81.1365 436.056 80.679C435.71 80.2094 435.52 79.6745 435.487 79.0744L437.179 79.0821C437.225 79.5743 437.451 79.9773 437.857 80.2911C438.276 80.6051 438.821 80.7635 439.493 80.7666C440.117 80.7694 440.61 80.6336 440.971 80.3593C441.332 80.0849 441.514 79.7377 441.516 79.3177C441.518 78.8857 441.327 78.5669 440.944 78.3611C440.561 78.1434 439.968 77.9307 439.165 77.7231C438.434 77.5277 437.835 77.333 437.368 77.1389C436.913 76.9328 436.518 76.637 436.184 76.2515C435.861 75.854 435.702 75.3373 435.705 74.7013C435.707 74.1973 435.859 73.736 436.161 73.3174C436.463 72.8987 436.89 72.5707 437.443 72.3332C437.997 72.0837 438.627 71.9606 439.335 71.9638C440.427 71.9687 441.308 72.2487 441.977 72.8038C442.647 73.3588 443.003 74.1164 443.047 75.0766L441.409 75.0692C441.375 74.5531 441.167 74.1381 440.785 73.8244C440.414 73.5107 439.911 73.3524 439.275 73.3495C438.687 73.3468 438.218 73.4707 437.869 73.7211C437.52 73.9716 437.345 74.3008 437.343 74.7088C437.341 75.0328 437.442 75.3032 437.645 75.5201C437.86 75.7251 438.123 75.8943 438.435 76.0277C438.758 76.1492 439.202 76.2892 439.765 76.4478C440.472 76.643 441.047 76.8376 441.49 77.0316C441.933 77.2136 442.31 77.4913 442.62 77.8647C442.943 78.2382 443.109 78.725 443.118 79.325C443.115 79.865 442.963 80.3503 442.661 80.781C442.359 81.2116 441.932 81.5517 441.379 81.8011C440.837 82.0387 440.213 82.1559 439.505 82.1526ZM448.909 82.1953C448.153 82.1919 447.476 82.0628 446.877 81.8081C446.278 81.5414 445.806 81.1792 445.46 80.7217C445.114 80.2521 444.924 79.7172 444.891 79.1171L446.583 79.1247C446.629 79.617 446.855 80.02 447.262 80.3338C447.68 80.6477 448.225 80.8062 448.897 80.8093C449.521 80.8121 450.014 80.6763 450.375 80.402C450.737 80.1276 450.918 79.7804 450.92 79.3604C450.922 78.9284 450.731 78.6096 450.348 78.4038C449.965 78.1861 449.372 77.9734 448.569 77.7657C447.838 77.5704 447.239 77.3757 446.772 77.1816C446.317 76.9755 445.922 76.6797 445.588 76.2942C445.266 75.8967 445.106 75.38 445.109 74.744C445.111 74.24 445.263 73.7787 445.565 73.3601C445.867 72.9414 446.295 72.6134 446.848 72.3759C447.401 72.1264 448.031 72.0032 448.739 72.0065C449.831 72.0114 450.712 72.2914 451.382 72.8465C452.051 73.4015 452.408 74.1591 452.451 75.1193L450.813 75.1119C450.78 74.5957 450.572 74.1808 450.189 73.8671C449.818 73.5534 449.315 73.3951 448.679 73.3922C448.091 73.3895 447.623 73.5134 447.273 73.7638C446.924 74.0142 446.749 74.3434 446.747 74.7514C446.745 75.0754 446.846 75.3459 447.049 75.5628C447.264 75.7678 447.528 75.937 447.839 76.0704C448.162 76.1919 448.606 76.3319 449.169 76.4905C449.876 76.6857 450.451 76.8803 450.894 77.0743C451.338 77.2563 451.714 77.534 452.025 77.9074C452.347 78.2809 452.513 78.7677 452.522 79.3677C452.52 79.9077 452.367 80.393 452.065 80.8236C451.763 81.2543 451.336 81.5943 450.783 81.8438C450.242 82.0814 449.617 82.1985 448.909 82.1953ZM454.233 77.0894C454.237 76.0815 454.445 75.2004 454.857 74.4462C455.268 73.6801 455.829 73.0886 456.539 72.6719C457.261 72.2551 458.06 72.0488 458.936 72.0527C459.8 72.0567 460.549 72.2461 461.183 72.6209C461.817 72.9958 462.289 73.466 462.599 74.0314L462.607 72.2314L464.263 72.2389L464.218 82.1028L462.562 82.0953L462.57 80.2593C462.244 80.8338 461.756 81.3116 461.106 81.6927C460.468 82.0618 459.723 82.2444 458.871 82.2406C457.995 82.2366 457.204 82.017 456.498 81.5818C455.792 81.1466 455.237 80.538 454.833 79.7562C454.428 78.9743 454.228 78.0854 454.233 77.0894ZM462.585 77.1454C462.588 76.4014 462.441 75.7527 462.143 75.1993C461.846 74.646 461.44 74.2241 460.925 73.9338C460.422 73.6315 459.865 73.479 459.253 73.4762C458.641 73.4734 458.082 73.6149 457.577 73.9006C457.072 74.1863 456.668 74.6045 456.365 75.1551C456.063 75.7057 455.91 76.353 455.907 77.097C455.903 77.853 456.05 78.5137 456.348 79.0791C456.645 79.6324 457.045 80.0602 457.548 80.3625C458.051 80.6528 458.608 80.7993 459.22 80.8021C459.832 80.8049 460.391 80.6634 460.896 80.3777C461.413 80.0801 461.823 79.6559 462.126 79.1053C462.428 78.5427 462.581 77.8893 462.585 77.1454ZM473.459 74.0987C473.786 73.5362 474.268 73.0703 474.906 72.7012C475.555 72.3202 476.306 72.1316 477.158 72.1355C478.034 72.1394 478.825 72.353 479.531 72.7762C480.249 73.1995 480.811 73.796 481.215 74.5659C481.62 75.3237 481.82 76.2067 481.815 77.2146C481.811 78.2106 481.603 79.0977 481.191 79.8758C480.78 80.654 480.213 81.2574 479.491 81.6861C478.781 82.1149 477.988 82.3273 477.112 82.3233C476.272 82.3195 475.529 82.1302 474.883 81.7552C474.248 81.3683 473.765 80.8921 473.431 80.3266L473.402 86.8246L471.764 86.8171L471.83 72.2733L473.468 72.2807L473.459 74.0987ZM480.141 77.207C480.145 76.4631 479.998 75.8144 479.7 75.261C479.403 74.7077 478.997 74.2858 478.482 73.9955C477.979 73.7052 477.422 73.5587 476.81 73.5559C476.21 73.5532 475.651 73.7006 475.134 73.9983C474.629 74.284 474.219 74.7081 473.904 75.2707C473.602 75.8213 473.449 76.4627 473.445 77.1947C473.442 77.9386 473.589 78.5933 473.886 79.1587C474.196 79.7121 474.602 80.1399 475.105 80.4422C475.619 80.7326 476.177 80.8791 476.777 80.8818C477.389 80.8846 477.947 80.7431 478.453 80.4574C478.97 80.1598 479.38 79.7356 479.682 79.185C479.985 78.6224 480.138 77.963 480.141 77.207ZM485.647 68.88L485.587 82.1998L483.949 82.1924L484.009 68.8725L485.647 68.88ZM487.789 77.2418C487.794 76.2338 488.002 75.3527 488.413 74.5986C488.824 73.8324 489.385 73.241 490.095 72.8242C490.817 72.4075 491.616 72.2011 492.492 72.2051C493.356 72.209 494.105 72.3984 494.739 72.7733C495.374 73.1481 495.845 73.6183 496.155 74.1837L496.163 72.3837L497.819 72.3912L497.774 82.2551L496.118 82.2476L496.127 80.4116C495.8 80.9862 495.312 81.464 494.662 81.845C494.024 82.2141 493.28 82.3967 492.428 82.3929C491.552 82.3889 490.761 82.1693 490.055 81.7341C489.349 81.2989 488.793 80.6904 488.389 79.9085C487.984 79.1267 487.784 78.2377 487.789 77.2418ZM496.141 77.2977C496.144 76.5537 495.997 75.905 495.7 75.3516C495.402 74.7983 494.996 74.3764 494.481 74.0861C493.979 73.7838 493.421 73.6313 492.809 73.6285C492.197 73.6257 491.639 73.7672 491.133 74.0529C490.628 74.3386 490.224 74.7568 489.922 75.3074C489.619 75.8581 489.466 76.5054 489.463 77.2494C489.46 78.0054 489.607 78.666 489.904 79.2314C490.201 79.7847 490.602 80.2126 491.104 80.5148C491.607 80.8051 492.164 80.9517 492.776 80.9544C493.388 80.9572 493.947 80.8157 494.452 80.53C494.969 80.2324 495.379 79.8082 495.682 79.2576C495.984 78.695 496.137 78.0417 496.141 77.2977ZM499.953 77.315C499.957 76.295 500.165 75.4079 500.577 74.6538C500.988 73.8876 501.555 73.2962 502.277 72.8795C503.011 72.4628 503.846 72.2566 504.782 72.2608C505.994 72.2663 506.988 72.5649 507.766 73.1564C508.555 73.748 509.073 74.5663 509.321 75.6115L507.557 75.6035C507.391 75.0027 507.064 74.5272 506.573 74.177C506.095 73.8268 505.496 73.6501 504.776 73.6468C503.84 73.6426 503.082 73.9631 502.503 74.6085C501.924 75.2419 501.632 76.1466 501.627 77.3226C501.621 78.5106 501.905 79.4299 502.478 80.0805C503.051 80.7311 503.806 81.0585 504.742 81.0628C505.462 81.066 506.063 80.9007 506.544 80.5669C507.026 80.2331 507.358 79.7546 507.541 79.1314L509.305 79.1394C509.036 80.1462 508.504 80.9538 507.71 81.5622C506.915 82.1586 505.924 82.4541 504.736 82.4487C503.8 82.4445 502.967 82.2307 502.236 81.8074C501.518 81.3841 500.957 80.7876 500.553 80.0177C500.148 79.2479 499.948 78.347 499.953 77.315ZM520.5 77.0482C520.498 77.3602 520.479 77.6901 520.441 78.038L512.557 78.0022C512.613 78.9745 512.94 79.7379 513.537 80.2927C514.147 80.8354 514.883 81.1088 515.747 81.1127C516.455 81.1159 517.044 80.9566 517.514 80.6347C517.995 80.3009 518.333 79.8584 518.528 79.3073L520.292 79.3153C520.023 80.2621 519.492 81.0337 518.697 81.6301C517.902 82.2145 516.917 82.504 515.741 82.4987C514.805 82.4944 513.966 82.2806 513.224 81.8573C512.494 81.4339 511.921 80.8373 511.504 80.0674C511.088 79.2855 510.882 78.3846 510.886 77.3646C510.891 76.3446 511.099 75.4515 511.51 74.6854C511.922 73.9193 512.495 73.3339 513.228 72.9292C513.974 72.5126 514.827 72.3064 515.787 72.3108C516.723 72.315 517.55 72.5228 518.268 72.9341C518.987 73.3453 519.536 73.9118 519.917 74.6336C520.31 75.3434 520.504 76.1482 520.5 77.0482ZM518.809 76.6986C518.812 76.0746 518.677 75.5399 518.403 75.0947C518.129 74.6374 517.752 74.2937 517.273 74.0636C516.806 73.8214 516.285 73.6991 515.709 73.6965C514.881 73.6927 514.172 73.9535 513.581 74.4788C513.003 75.0042 512.67 75.7347 512.581 76.6703L518.809 76.6986ZM524.313 74.1135C524.604 73.5508 525.014 73.1147 525.543 72.8051C526.085 72.4955 526.739 72.3425 527.507 72.346L527.5 74.038L527.068 74.036C525.232 74.0277 524.309 75.0195 524.3 77.0115L524.276 82.3754L522.638 82.368L522.683 72.5041L524.321 72.5115L524.313 74.1135ZM528.763 77.4277C528.768 76.4198 528.976 75.5387 529.387 74.7846C529.799 74.0184 530.359 73.427 531.069 73.0102C531.791 72.5934 532.59 72.3871 533.466 72.391C534.33 72.395 535.079 72.5844 535.714 72.9593C536.348 73.3341 536.82 73.8043 537.129 74.3697L537.137 72.5697L538.793 72.5772L538.749 82.4411L537.093 82.4336L537.101 80.5976C536.774 81.1721 536.286 81.6499 535.636 82.031C534.999 82.4001 534.254 82.5827 533.402 82.5789C532.526 82.5749 531.735 82.3553 531.029 81.9201C530.323 81.4849 529.768 80.8763 529.363 80.0945C528.959 79.3127 528.759 78.4237 528.763 77.4277ZM537.115 77.4837C537.118 76.7397 536.971 76.091 536.674 75.5376C536.376 74.9843 535.97 74.5624 535.456 74.2721C534.953 73.9698 534.396 73.8173 533.784 73.8145C533.172 73.8117 532.613 73.9532 532.108 74.2389C531.602 74.5246 531.198 74.9428 530.896 75.4934C530.593 76.044 530.441 76.6914 530.437 77.4353C530.434 78.1913 530.581 78.852 530.878 79.4174C531.176 79.9707 531.576 80.3985 532.078 80.7008C532.581 80.9911 533.138 81.1376 533.75 81.1404C534.362 81.1432 534.921 81.0017 535.426 80.716C535.944 80.4184 536.354 79.9942 536.656 79.4436C536.959 78.881 537.112 78.2277 537.115 77.4837ZM543.553 73.9488L543.527 79.7628C543.525 80.2428 543.625 80.5852 543.828 80.7902C544.031 80.9831 544.385 81.0807 544.889 81.083L546.095 81.0885L546.089 82.4744L544.613 82.4677C543.701 82.4636 543.018 82.2505 542.563 81.8284C542.109 81.4064 541.884 80.7153 541.889 79.7554L541.915 73.9414L540.637 73.9356L540.643 72.5856L541.921 72.5914L541.933 70.1074L543.571 70.1149L543.559 72.5989L546.133 72.6105L546.127 73.9605L543.553 73.9488ZM155.065 102.732C155.07 101.724 155.278 100.843 155.689 100.089C156.101 99.3224 156.662 98.731 157.371 98.3142C158.093 97.8975 158.898 97.6911 159.786 97.6951C160.554 97.6986 161.267 97.8819 161.926 98.2449C162.584 98.5958 163.086 99.0601 163.431 99.6377L163.455 94.4178L165.111 94.4253L165.051 107.745L163.395 107.738L163.403 105.884C163.076 106.47 162.594 106.954 161.957 107.335C161.319 107.704 160.574 107.887 159.722 107.883C158.846 107.879 158.049 107.659 157.331 107.224C156.625 106.789 156.07 106.18 155.665 105.399C155.261 104.617 155.061 103.728 155.065 102.732ZM163.417 102.788C163.421 102.044 163.274 101.395 162.976 100.842C162.679 100.288 162.272 99.8664 161.758 99.5761C161.255 99.2738 160.698 99.1213 160.086 99.1185C159.474 99.1157 158.915 99.2572 158.41 99.5429C157.905 99.8286 157.501 100.247 157.198 100.797C156.896 101.348 156.743 101.995 156.739 102.739C156.736 103.495 156.883 104.156 157.18 104.721C157.478 105.275 157.878 105.703 158.381 106.005C158.883 106.295 159.441 106.442 160.053 106.444C160.665 106.447 161.223 106.306 161.728 106.02C162.246 105.722 162.656 105.298 162.958 104.748C163.261 104.185 163.414 103.532 163.417 102.788ZM176.611 97.9335L176.567 107.797L174.929 107.79L174.935 106.332C174.621 106.835 174.181 107.229 173.616 107.514C173.063 107.788 172.45 107.923 171.778 107.92C171.01 107.916 170.321 107.757 169.71 107.442C169.1 107.116 168.616 106.633 168.259 105.996C167.914 105.358 167.743 104.583 167.747 103.671L167.774 97.8934L169.393 97.9007L169.368 103.463C169.364 104.435 169.606 105.186 170.096 105.716C170.586 106.234 171.256 106.495 172.108 106.499C172.984 106.503 173.676 106.236 174.182 105.699C174.689 105.161 174.944 104.376 174.949 103.344L174.973 97.9261L176.611 97.9335ZM180.23 96.3479C179.918 96.3465 179.655 96.2373 179.44 96.0203C179.225 95.8033 179.118 95.5389 179.119 95.2269C179.121 94.9149 179.23 94.6514 179.447 94.4363C179.664 94.2213 179.928 94.1145 180.24 94.1159C180.54 94.1173 180.792 94.2264 180.995 94.4434C181.21 94.6603 181.317 94.9248 181.315 95.2368C181.314 95.5488 181.205 95.8123 180.988 96.0274C180.783 96.2424 180.53 96.3493 180.23 96.3479ZM181.015 97.9535L180.97 107.817L179.332 107.81L179.377 97.9461L181.015 97.9535ZM187.253 108.008C186.497 108.004 185.82 107.875 185.221 107.621C184.622 107.354 184.15 106.992 183.804 106.534C183.458 106.065 183.268 105.53 183.235 104.93L184.927 104.937C184.973 105.43 185.199 105.833 185.606 106.146C186.024 106.46 186.569 106.619 187.241 106.622C187.865 106.625 188.358 106.489 188.719 106.215C189.081 105.94 189.262 105.593 189.264 105.173C189.266 104.741 189.075 104.422 188.692 104.216C188.309 103.999 187.716 103.786 186.913 103.578C186.182 103.383 185.583 103.188 185.116 102.994C184.661 102.788 184.266 102.492 183.932 102.107C183.61 101.709 183.45 101.193 183.453 100.557C183.455 100.053 183.607 99.5913 183.909 99.1726C184.211 98.754 184.639 98.4259 185.192 98.1885C185.745 97.939 186.375 97.8158 187.083 97.819C188.175 97.824 189.056 98.104 189.726 98.659C190.395 99.2141 190.752 99.9717 190.795 100.932L189.157 100.924C189.124 100.408 188.916 99.9934 188.533 99.6796C188.162 99.366 187.659 99.2077 187.023 99.2048C186.435 99.2021 185.967 99.326 185.617 99.5764C185.268 99.8268 185.093 100.156 185.091 100.564C185.089 100.888 185.19 101.158 185.393 101.375C185.608 101.58 185.872 101.75 186.183 101.883C186.506 102.004 186.95 102.144 187.513 102.303C188.22 102.498 188.795 102.693 189.238 102.887C189.682 103.069 190.058 103.347 190.369 103.72C190.691 104.093 190.857 104.58 190.866 105.18C190.864 105.72 190.711 106.206 190.409 106.636C190.107 107.067 189.68 107.407 189.127 107.656C188.586 107.894 187.961 108.011 187.253 108.008ZM206.758 98.0703L206.713 107.934L205.075 107.927L205.081 106.469C204.767 106.971 204.327 107.365 203.762 107.651C203.209 107.924 202.596 108.06 201.924 108.057C201.156 108.053 200.467 107.894 199.856 107.579C199.246 107.252 198.762 106.77 198.405 106.133C198.06 105.495 197.889 104.72 197.893 103.808L197.92 98.0302L199.54 98.0376L199.514 103.6C199.51 104.572 199.753 105.323 200.242 105.853C200.732 106.371 201.403 106.632 202.255 106.636C203.131 106.64 203.822 106.373 204.328 105.835C204.835 105.298 205.09 104.513 205.095 103.481L205.12 98.0629L206.758 98.0703ZM211.177 94.6344L211.116 107.954L209.478 107.947L209.539 94.6269L211.177 94.6344ZM215.945 99.4621L215.918 105.276C215.916 105.756 216.017 106.098 216.22 106.303C216.423 106.496 216.776 106.594 217.28 106.596L218.486 106.602L218.48 107.988L217.004 107.981C216.092 107.977 215.409 107.764 214.955 107.342C214.501 106.92 214.276 106.229 214.28 105.269L214.307 99.4546L213.029 99.4488L213.035 98.0988L214.313 98.1046L214.324 95.6207L215.962 95.6281L215.951 98.1121L218.525 98.1238L218.519 99.4737L215.945 99.4621ZM222.14 99.7422C222.431 99.1795 222.841 98.7434 223.37 98.4338C223.912 98.1242 224.566 97.9712 225.334 97.9747L225.327 99.6666L224.895 99.6647C223.059 99.6564 222.136 100.648 222.127 102.64L222.103 108.004L220.465 107.997L220.509 98.1328L222.147 98.1402L222.14 99.7422ZM228.077 96.5651C227.765 96.5637 227.502 96.4545 227.287 96.2375C227.072 96.0205 226.965 95.756 226.967 95.444C226.968 95.1321 227.077 94.8685 227.294 94.6535C227.511 94.4385 227.776 94.3317 228.088 94.3331C228.388 94.3345 228.639 94.4436 228.842 94.6606C229.057 94.8775 229.164 95.142 229.163 95.454C229.161 95.766 229.052 96.0295 228.835 96.2445C228.63 96.4596 228.377 96.5665 228.077 96.5651ZM228.862 98.1707L228.817 108.035L227.179 108.027L227.224 98.1632L228.862 98.1707ZM231.02 103.095C231.024 102.075 231.232 101.187 231.644 100.433C232.055 99.6672 232.622 99.0758 233.344 98.659C234.078 98.2424 234.913 98.0361 235.849 98.0404C237.061 98.0459 238.055 98.3444 238.833 98.9359C239.622 99.5275 240.14 100.346 240.387 101.391L238.623 101.383C238.458 100.782 238.13 100.307 237.64 99.9565C237.161 99.6064 236.562 99.4296 235.842 99.4264C234.906 99.4221 234.149 99.7427 233.57 100.388C232.991 101.021 232.699 101.926 232.694 103.102C232.688 104.29 232.972 105.209 233.545 105.86C234.118 106.511 234.873 106.838 235.809 106.842C236.529 106.846 237.129 106.68 237.611 106.346C238.092 106.013 238.425 105.534 238.607 104.911L240.371 104.919C240.103 105.926 239.571 106.733 238.776 107.342C237.982 107.938 236.99 108.234 235.802 108.228C234.866 108.224 234.033 108.01 233.303 107.587C232.585 107.164 232.024 106.567 231.619 105.797C231.215 105.027 231.015 104.127 231.02 103.095ZM243.441 96.6348C243.129 96.6334 242.865 96.5242 242.65 96.3072C242.435 96.0903 242.328 95.8258 242.33 95.5138C242.331 95.2018 242.44 94.9383 242.657 94.7233C242.874 94.5082 243.139 94.4014 243.451 94.4029C243.751 94.4042 244.002 94.5134 244.205 94.7303C244.42 94.9473 244.527 95.2118 244.526 95.5238C244.524 95.8357 244.415 96.0993 244.198 96.3143C243.993 96.5293 243.741 96.6362 243.441 96.6348ZM244.225 98.2404L244.181 108.104L242.543 108.097L242.587 98.233L244.225 98.2404ZM255.996 102.848C255.995 103.16 255.975 103.49 255.938 103.838L248.054 103.802C248.109 104.774 248.436 105.538 249.033 106.092C249.643 106.635 250.38 106.908 251.244 106.912C251.952 106.916 252.54 106.756 253.01 106.434C253.491 106.101 253.829 105.658 254.024 105.107L255.788 105.115C255.52 106.062 254.988 106.833 254.193 107.43C253.399 108.014 252.413 108.304 251.237 108.298C250.301 108.294 249.462 108.08 248.72 107.657C247.99 107.234 247.417 106.637 247 105.867C246.584 105.085 246.378 104.184 246.383 103.164C246.387 102.144 246.595 101.251 247.007 100.485C247.418 99.7189 247.991 99.1335 248.725 98.7288C249.471 98.3122 250.324 98.1061 251.284 98.1105C252.22 98.1147 253.047 98.3225 253.765 98.7337C254.483 99.145 255.032 99.7115 255.413 100.433C255.806 101.143 256 101.948 255.996 102.848ZM254.306 102.498C254.309 101.874 254.173 101.34 253.899 100.894C253.625 100.437 253.249 100.093 252.77 99.8632C252.303 99.6211 251.781 99.4987 251.205 99.4961C250.377 99.4924 249.668 99.7531 249.078 100.278C248.499 100.804 248.166 101.534 248.078 102.47L254.306 102.498ZM261.625 108.346C260.869 108.342 260.192 108.213 259.593 107.958C258.994 107.692 258.522 107.329 258.176 106.872C257.83 106.402 257.641 105.867 257.607 105.267L259.299 105.275C259.345 105.767 259.571 106.17 259.978 106.484C260.396 106.798 260.942 106.956 261.614 106.959C262.238 106.962 262.73 106.827 263.092 106.552C263.453 106.278 263.634 105.931 263.636 105.511C263.638 105.079 263.448 104.76 263.065 104.554C262.682 104.336 262.089 104.124 261.286 103.916C260.554 103.721 259.955 103.526 259.488 103.332C259.033 103.126 258.638 102.83 258.304 102.444C257.982 102.047 257.822 101.53 257.825 100.894C257.828 100.39 257.98 99.9289 258.282 99.5102C258.583 99.0916 259.011 98.7635 259.564 98.526C260.117 98.2766 260.748 98.1534 261.456 98.1566C262.548 98.1616 263.428 98.4416 264.098 98.9966C264.767 99.5517 265.124 100.309 265.168 101.27L263.53 101.262C263.496 100.746 263.288 100.331 262.905 100.017C262.535 99.7035 262.031 99.5453 261.395 99.5424C260.807 99.5397 260.339 99.6636 259.99 99.914C259.641 100.164 259.465 100.494 259.463 100.902C259.462 101.226 259.563 101.496 259.766 101.713C259.981 101.918 260.244 102.087 260.555 102.221C260.879 102.342 261.322 102.482 261.885 102.641C262.592 102.836 263.168 103.03 263.611 103.224C264.054 103.406 264.431 103.684 264.741 104.058C265.063 104.431 265.229 104.918 265.238 105.518C265.236 106.058 265.084 106.543 264.782 106.974C264.48 107.404 264.052 107.745 263.499 107.994C262.958 108.232 262.333 108.349 261.625 108.346ZM268.06 108.321C267.748 108.319 267.484 108.21 267.269 107.993C267.054 107.776 266.948 107.512 266.949 107.2C266.95 106.888 267.06 106.624 267.277 106.409C267.494 106.194 267.758 106.087 268.07 106.089C268.37 106.09 268.622 106.199 268.825 106.416C269.04 106.633 269.146 106.898 269.145 107.21C269.144 107.522 269.034 107.785 268.817 108C268.612 108.215 268.36 108.322 268.06 108.321ZM286.541 95.7505L281.75 108.275L279.86 108.266L275.183 95.6989L276.929 95.7068L280.822 106.543L284.813 95.7426L286.541 95.7505ZM297.304 103.035C297.303 103.347 297.283 103.677 297.246 104.025L289.362 103.989C289.418 104.962 289.744 105.725 290.342 106.28C290.951 106.823 291.688 107.096 292.552 107.1C293.26 107.103 293.849 106.944 294.318 106.622C294.8 106.288 295.138 105.846 295.332 105.294L297.096 105.302C296.828 106.249 296.296 107.021 295.502 107.617C294.707 108.202 293.722 108.491 292.546 108.486C291.61 108.482 290.771 108.268 290.028 107.844C289.298 107.421 288.725 106.824 288.309 106.055C287.892 105.273 287.686 104.372 287.691 103.352C287.695 102.332 287.904 101.439 288.315 100.673C288.727 99.9064 289.299 99.321 290.033 98.9163C290.779 98.4997 291.632 98.2936 292.592 98.298C293.528 98.3022 294.355 98.51 295.073 98.9212C295.791 99.3325 296.341 99.899 296.721 100.621C297.114 101.331 297.308 102.135 297.304 103.035ZM295.614 102.686C295.617 102.062 295.481 101.527 295.207 101.082C294.933 100.625 294.557 100.281 294.078 100.051C293.611 99.8086 293.09 99.6862 292.514 99.6836C291.686 99.6799 290.976 99.9406 290.386 100.466C289.808 100.991 289.474 101.722 289.386 102.657L295.614 102.686ZM304.294 98.3331C305.494 98.3385 306.464 98.7089 307.205 99.4443C307.946 100.168 308.313 101.213 308.307 102.581L308.28 108.395L306.66 108.388L306.686 102.808C306.69 101.824 306.448 101.073 305.958 100.555C305.468 100.024 304.797 99.7574 303.945 99.7535C303.081 99.7496 302.39 100.016 301.872 100.554C301.365 101.092 301.11 101.877 301.105 102.909L301.08 108.363L299.442 108.355L299.487 98.4913L301.125 98.4987L301.119 99.9027C301.445 99.4002 301.885 99.0121 302.438 98.7387C303.003 98.4652 303.622 98.33 304.294 98.3331ZM319.98 103.138C319.979 103.45 319.959 103.78 319.921 104.128L312.038 104.092C312.093 105.065 312.42 105.828 313.017 106.383C313.627 106.926 314.363 107.199 315.227 107.203C315.935 107.206 316.524 107.047 316.994 106.725C317.475 106.391 317.813 105.949 318.008 105.397L319.772 105.405C319.503 106.352 318.972 107.124 318.177 107.72C317.382 108.305 316.397 108.594 315.221 108.589C314.285 108.585 313.446 108.371 312.704 107.947C311.974 107.524 311.401 106.927 310.984 106.158C310.568 105.376 310.362 104.475 310.366 103.455C310.371 102.435 310.579 101.542 310.991 100.775C311.402 100.009 311.975 99.4239 312.709 99.0193C313.454 98.6027 314.307 98.3965 315.267 98.4009C316.203 98.4051 317.03 98.6129 317.749 99.0242C318.467 99.4354 319.016 100.002 319.397 100.724C319.79 101.433 319.984 102.238 319.98 103.138ZM318.29 102.789C318.292 102.165 318.157 101.63 317.883 101.185C317.609 100.728 317.232 100.384 316.753 100.154C316.287 99.9115 315.765 99.7892 315.189 99.7865C314.361 99.7828 313.652 100.044 313.062 100.569C312.483 101.094 312.15 101.825 312.062 102.76L318.29 102.789ZM326.969 98.436C328.169 98.4414 329.14 98.8119 329.88 99.5472C330.621 100.271 330.988 101.316 330.982 102.684L330.956 108.498L329.336 108.491L329.361 102.911C329.366 101.927 329.123 101.176 328.633 100.658C328.144 100.127 327.473 99.8603 326.621 99.8564C325.757 99.8525 325.066 100.119 324.547 100.657C324.041 101.195 323.785 101.98 323.781 103.012L323.756 108.466L322.118 108.458L322.163 98.5942L323.801 98.6016L323.794 100.006C324.121 99.5031 324.56 99.1151 325.114 98.8416C325.679 98.5681 326.297 98.433 326.969 98.436ZM333.042 103.54C333.047 102.532 333.255 101.651 333.666 100.896C334.078 100.13 334.638 99.5388 335.348 99.122C336.07 98.7053 336.869 98.4989 337.745 98.5029C338.609 98.5068 339.358 98.6962 339.992 99.0711C340.627 99.446 341.099 99.9162 341.408 100.482L341.416 98.6816L343.072 98.6891L343.027 108.553L341.371 108.545L341.38 106.709C341.053 107.284 340.565 107.762 339.915 108.143C339.278 108.512 338.533 108.695 337.681 108.691C336.805 108.687 336.014 108.467 335.308 108.032C334.602 107.597 334.046 106.988 333.642 106.206C333.237 105.425 333.038 104.536 333.042 103.54ZM341.394 103.596C341.397 102.852 341.25 102.203 340.953 101.65C340.655 101.096 340.249 100.674 339.734 100.384C339.232 100.082 338.674 99.9291 338.062 99.9264C337.45 99.9236 336.892 100.065 336.387 100.351C335.881 100.636 335.477 101.055 335.175 101.605C334.872 102.156 334.719 102.803 334.716 103.547C334.713 104.303 334.86 104.964 335.157 105.529C335.455 106.083 335.855 106.51 336.357 106.813C336.86 107.103 337.417 107.25 338.029 107.252C338.641 107.255 339.2 107.114 339.705 106.828C340.223 106.53 340.632 106.106 340.935 105.555C341.238 104.993 341.39 104.34 341.394 103.596ZM347.832 100.061L347.806 105.875C347.803 106.355 347.904 106.697 348.107 106.902C348.31 107.095 348.664 107.193 349.168 107.195L350.374 107.2L350.367 108.586L348.891 108.58C347.979 108.575 347.296 108.362 346.842 107.94C346.388 107.518 346.163 106.827 346.168 105.867L346.194 100.053L344.916 100.047L344.922 98.6975L346.2 98.7033L346.211 96.2193L347.849 96.2268L347.838 98.7107L350.412 98.7224L350.406 100.072L347.832 100.061ZM353.25 97.1333C352.938 97.1319 352.675 97.0227 352.459 96.8057C352.244 96.5887 352.138 96.3242 352.139 96.0122C352.141 95.7002 352.25 95.4367 352.467 95.2217C352.684 95.0067 352.948 94.8999 353.26 94.9013C353.56 94.9027 353.812 95.0118 354.015 95.2287C354.23 95.4457 354.336 95.7102 354.335 96.0222C354.334 96.3342 354.224 96.5977 354.007 96.8127C353.803 97.0278 353.55 97.1346 353.25 97.1333ZM354.035 98.7389L353.99 108.603L352.352 108.595L352.397 98.7314L354.035 98.7389ZM360.273 108.793C359.517 108.79 358.839 108.661 358.241 108.406C357.642 108.139 357.169 107.777 356.824 107.32C356.478 106.85 356.288 106.315 356.255 105.715L357.947 105.723C357.993 106.215 358.219 106.618 358.625 106.932C359.044 107.246 359.589 107.404 360.261 107.407C360.885 107.41 361.378 107.274 361.739 107C362.1 106.726 362.282 106.378 362.284 105.958C362.286 105.526 362.095 105.208 361.712 105.002C361.329 104.784 360.736 104.571 359.933 104.364C359.202 104.168 358.603 103.974 358.136 103.78C357.681 103.573 357.286 103.278 356.952 102.892C356.629 102.495 356.47 101.978 356.473 101.342C356.475 100.838 356.627 100.377 356.929 99.958C357.231 99.5394 357.658 99.2113 358.211 98.9738C358.765 98.7243 359.395 98.6012 360.103 98.6044C361.195 98.6094 362.076 98.8894 362.745 99.4444C363.415 99.9994 363.771 100.757 363.815 101.717L362.177 101.71C362.143 101.194 361.935 100.779 361.553 100.465C361.182 100.151 360.679 99.993 360.043 99.9901C359.455 99.9875 358.986 100.111 358.637 100.362C358.288 100.612 358.112 100.941 358.111 101.349C358.109 101.673 358.21 101.944 358.413 102.161C358.628 102.366 358.891 102.535 359.203 102.668C359.526 102.79 359.969 102.93 360.533 103.088C361.24 103.284 361.815 103.478 362.258 103.672C362.701 103.854 363.078 104.132 363.388 104.505C363.711 104.879 363.876 105.366 363.886 105.966C363.883 106.506 363.731 106.991 363.429 107.422C363.127 107.852 362.7 108.192 362.146 108.442C361.605 108.679 360.981 108.796 360.273 108.793ZM370.395 103.727C370.4 102.707 370.608 101.82 371.019 101.066C371.431 100.3 371.997 99.7084 372.719 99.2917C373.453 98.875 374.288 98.6688 375.224 98.673C376.436 98.6785 377.431 98.9771 378.208 99.5686C378.997 100.16 379.516 100.979 379.763 102.024L377.999 102.016C377.834 101.415 377.506 100.939 377.015 100.589C376.537 100.239 375.938 100.062 375.218 100.059C374.282 100.055 373.524 100.375 372.945 101.021C372.367 101.654 372.074 102.559 372.069 103.735C372.064 104.923 372.348 105.842 372.921 106.493C373.494 107.143 374.248 107.471 375.184 107.475C375.904 107.478 376.505 107.313 376.986 106.979C377.468 106.645 377.8 106.167 377.983 105.544L379.747 105.552C379.478 106.558 378.947 107.366 378.152 107.974C377.357 108.571 376.366 108.866 375.178 108.861C374.242 108.857 373.409 108.643 372.679 108.22C371.961 107.796 371.399 107.2 370.995 106.43C370.59 105.66 370.39 104.759 370.395 103.727ZM383.594 100.475C383.884 99.9124 384.294 99.4762 384.824 99.1666C385.365 98.8571 386.02 98.704 386.788 98.7075L386.78 100.4L386.348 100.398C384.512 100.389 383.589 101.381 383.58 103.373L383.556 108.737L381.918 108.73L381.963 98.8656L383.601 98.8731L383.594 100.475ZM388.043 103.789C388.048 102.781 388.256 101.9 388.667 101.146C389.079 100.38 389.64 99.7885 390.349 99.3717C391.071 98.955 391.87 98.7486 392.746 98.7526C393.61 98.7565 394.359 98.9459 394.994 99.3208C395.628 99.6957 396.1 100.166 396.409 100.731L396.418 98.9312L398.074 98.9388L398.029 108.803L396.373 108.795L396.381 106.959C396.055 107.534 395.566 108.011 394.917 108.393C394.279 108.762 393.534 108.944 392.682 108.94C391.806 108.936 391.015 108.717 390.309 108.282C389.603 107.846 389.048 107.238 388.643 106.456C388.239 105.674 388.039 104.785 388.043 103.789ZM396.395 103.845C396.399 103.101 396.252 102.453 395.954 101.899C395.657 101.346 395.25 100.924 394.736 100.634C394.233 100.331 393.676 100.179 393.064 100.176C392.452 100.173 391.893 100.315 391.388 100.6C390.883 100.886 390.479 101.304 390.176 101.855C389.874 102.406 389.721 103.053 389.717 103.797C389.714 104.553 389.861 105.214 390.158 105.779C390.456 106.332 390.856 106.76 391.359 107.062C391.861 107.353 392.419 107.499 393.031 107.502C393.643 107.505 394.201 107.363 394.707 107.078C395.224 106.78 395.634 106.356 395.936 105.805C396.239 105.242 396.392 104.589 396.395 103.845ZM404.288 108.993C403.532 108.99 402.855 108.861 402.256 108.606C401.657 108.339 401.185 107.977 400.839 107.519C400.493 107.05 400.303 106.515 400.27 105.915L401.962 105.922C402.008 106.415 402.234 106.818 402.64 107.132C403.059 107.445 403.604 107.604 404.276 107.607C404.9 107.61 405.393 107.474 405.754 107.2C406.115 106.925 406.297 106.578 406.299 106.158C406.301 105.726 406.11 105.407 405.727 105.202C405.344 104.984 404.751 104.771 403.948 104.563C403.217 104.368 402.618 104.173 402.151 103.979C401.696 103.773 401.301 103.477 400.967 103.092C400.645 102.694 400.485 102.178 400.488 101.542C400.49 101.038 400.642 100.576 400.944 100.158C401.246 99.7392 401.673 99.4111 402.227 99.1736C402.78 98.9241 403.41 98.801 404.118 98.8042C405.21 98.8091 406.091 99.0891 406.76 99.6442C407.43 100.199 407.787 100.957 407.83 101.917L406.192 101.91C406.159 101.393 405.95 100.979 405.568 100.665C405.197 100.351 404.694 100.193 404.058 100.19C403.47 100.187 403.001 100.311 402.652 100.562C402.303 100.812 402.128 101.141 402.126 101.549C402.124 101.873 402.225 102.144 402.428 102.361C402.643 102.566 402.906 102.735 403.218 102.868C403.541 102.99 403.985 103.13 404.548 103.288C405.255 103.483 405.83 103.678 406.273 103.872C406.716 104.054 407.093 104.332 407.404 104.705C407.726 105.079 407.892 105.565 407.901 106.165C407.898 106.705 407.746 107.191 407.444 107.621C407.142 108.052 406.715 108.392 406.162 108.642C405.621 108.879 404.996 108.996 404.288 108.993Z" fill="white" fill-opacity="0.8"/>
<defs>
<linearGradient id="paint0_linear_1_121" x1="145.679" y1="-8.01147e-06" x2="283.039" y2="146.234" gradientUnits="userSpaceOnUse">
<stop stop-color="#F86CF8"/>
<stop offset="1" stop-color="#64CEF5"/>
</linearGradient>
</defs>
</svg>
